<?xml version="1.0" encoding="UTF-8" standalone="no"?>
<svg width="178px" height="37px" viewBox="0 0 178 37" version="1.1" xmlns="http://www.w3.org/2000/svg" xmlns:xlink="http://www.w3.org/1999/xlink" xmlns:sketch="http://www.bohemiancoding.com/sketch/ns">
    <!-- Generator: Sketch 3.3.3 (12081) - http://www.bohemiancoding.com/sketch -->
    <title>logo</title>
    <desc>Created with Sketch.</desc>
    <defs></defs>
    <g id="Welcome" stroke="none" stroke-width="1" fill="none" fill-rule="evenodd" sketch:type="MSPage">
        <g id="logo" sketch:type="MSArtboardGroup" fill="#4DA14B">
            <g id="aboutalessio-copy" sketch:type="MSLayerGroup" transform="translate(1.000000, 7.000000)">
                <path d="M10.6347656,19.265625 C10.1243464,20.1588586 9.36328631,20.8857394 8.3515625,21.4462891 C7.33983869,22.0068387 6.11393949,22.2871094 4.67382812,22.2871094 C3.29751916,22.2871094 2.21745184,21.9111366 1.43359375,21.1591797 C0.649735664,20.4072228 0.2578125,19.3932355 0.2578125,18.1171875 C0.2578125,16.877598 0.843418623,15.8385459 2.01464844,15 C3.18587825,14.1614541 4.65103287,13.7421875 6.41015625,13.7421875 L10.6347656,13.7421875 L10.6347656,11.5820312 C10.6347656,10.3515563 10.2405638,9.39225604 9.45214844,8.70410156 C8.66373304,8.01594708 7.55404361,7.671875 6.12304688,7.671875 C4.78319643,7.671875 3.70540772,7.99543947 2.88964844,8.64257812 C2.07388915,9.28971678 1.66601562,10.1236928 1.66601562,11.1445312 L1.05078125,11.1171875 L1.0234375,11.0488281 C0.968749727,9.90038488 1.41535984,8.92741284 2.36328125,8.12988281 C3.31120266,7.33235278 4.56444533,6.93359375 6.12304688,6.93359375 C7.7089923,6.93359375 8.98046396,7.33463141 9.9375,8.13671875 C10.894536,8.93880609 11.3730469,10.0963466 11.3730469,11.609375 L11.3730469,19.0195312 C11.3730469,19.5390651 11.402669,20.0449194 11.4619141,20.5371094 C11.5211592,21.0292993 11.6191399,21.5169247 11.7558594,22 L10.9355469,22 C10.8170567,21.3528613 10.7373049,20.8675146 10.6962891,20.5439453 C10.6552732,20.220376 10.6347656,19.8717467 10.6347656,19.4980469 L10.6347656,19.265625 Z M4.67382812,21.5625 C6.14128338,21.5625 7.38313294,21.2389355 8.39941406,20.5917969 C9.41569519,19.9446582 10.1608049,19.0195373 10.6347656,17.8164062 L10.6347656,14.4941406 L6.45117188,14.4941406 C4.91991422,14.4941406 3.62793495,14.8473272 2.57519531,15.5537109 C1.52245567,16.2600947 0.99609375,17.1328073 0.99609375,18.171875 C0.99609375,19.1653696 1.33105134,19.978838 2.00097656,20.6123047 C2.67090179,21.2457714 3.5618434,21.5625 4.67382812,21.5625 L4.67382812,21.5625 Z M28.9930558,14.8769531 C28.9930558,17.1556104 28.5008732,18.9602798 27.5164933,20.2910156 C26.5321134,21.6217514 25.1740541,22.2871094 23.4422746,22.2871094 C22.2756021,22.2871094 21.2593362,22.0524112 20.3934464,21.5830078 C19.5275567,21.1136044 18.8530843,20.4778686 18.3700089,19.6757812 L18.2743058,22 L17.6590714,22 L17.6590714,0.671875 L18.3973527,0.671875 L18.3973527,9.84570312 C18.8895427,8.94335486 19.5594578,8.23242447 20.4071183,7.71289062 C21.2547788,7.19335678 22.2573729,6.93359375 23.4149308,6.93359375 C25.1558249,6.93359375 26.5207201,7.62401653 27.5096574,9.00488281 C28.4985946,10.3857491 28.9930558,12.2473841 28.9930558,14.5898438 L28.9930558,14.8769531 Z M28.2274308,14.5898438 C28.2274308,12.5390522 27.8172787,10.8733788 26.9969621,9.59277344 C26.1766455,8.31216808 24.9872042,7.671875 23.4286027,7.671875 C21.997606,7.671875 20.8856379,8.03189744 20.0926652,8.75195312 C19.2996925,9.47200881 18.734594,10.3561146 18.3973527,11.4042969 L18.3973527,18.3359375 C18.7619379,19.3112028 19.3726088,20.0904919 20.2293839,20.6738281 C21.0861591,21.2571644 22.1616691,21.5488281 23.4559464,21.5488281 C25.014548,21.5488281 26.199432,20.9472716 27.0106339,19.7441406 C27.8218359,18.5410096 28.2274308,16.91863 28.2274308,14.8769531 L28.2274308,14.5898438 Z M33.4060335,14.3164062 C33.4060335,12.1471246 34.0053114,10.3743558 35.2038851,8.99804688 C36.4024588,7.62173791 37.9587583,6.93359375 39.8728304,6.93359375 C41.7960171,6.93359375 43.3568739,7.62173791 44.5554476,8.99804688 C45.7540213,10.3743558 46.3532991,12.1471246 46.3532991,14.3164062 L46.3532991,14.890625 C46.3532991,17.0690213 45.7540213,18.8463473 44.5554476,20.2226562 C43.3568739,21.5989652 41.8051316,22.2871094 39.9001741,22.2871094 C37.9769874,22.2871094 36.413852,21.5989652 35.210721,20.2226562 C34.00759,18.8463473 33.4060335,17.0690213 33.4060335,14.890625 L33.4060335,14.3164062 Z M34.1443148,14.890625 C34.1443148,16.7500093 34.6638408,18.3245378 35.7029085,19.6142578 C36.7419762,20.9039778 38.1410508,21.5488281 39.9001741,21.5488281 C41.6319536,21.5488281 43.0173564,20.9016992 44.0564241,19.6074219 C45.0954918,18.3131446 45.6150179,16.7408947 45.6150179,14.890625 L45.6150179,14.3164062 C45.6150179,12.5025951 45.0909346,10.9417383 44.0427523,9.63378906 C42.9945699,8.32583981 41.6046099,7.671875 39.8728304,7.671875 C38.1319363,7.671875 36.7419762,8.32583981 35.7029085,9.63378906 C34.6638408,10.9417383 34.1443148,12.5025951 34.1443148,14.3164062 L34.1443148,14.890625 Z M61.3893237,19.3476562 C60.9244776,20.286463 60.2613983,21.0110652 59.4000659,21.5214844 C58.5387335,22.0319036 57.4928455,22.2871094 56.2623706,22.2871094 C54.7402276,22.2871094 53.5485077,21.7470757 52.6871753,20.6669922 C51.8258428,19.5869087 51.3951831,17.9121207 51.3951831,15.6425781 L51.3951831,7.20703125 L52.1334643,7.20703125 L52.1334643,15.6699219 C52.1334643,17.6751402 52.5026013,19.1562452 53.2408862,20.1132812 C53.9791712,21.0703173 54.977208,21.5488281 56.2350268,21.5488281 C57.7753991,21.5488281 58.9580045,21.1705767 59.7828784,20.4140625 C60.6077523,19.6575483 61.1341142,18.6549542 61.36198,17.40625 L61.36198,7.20703125 L62.1139331,7.20703125 L62.1139331,22 L61.4986987,22 L61.3893237,19.3476562 Z M69.8628483,3.21484375 L69.8628483,7.20703125 L73.499567,7.20703125 L73.499567,7.95898438 L69.8628483,7.95898438 L69.8628483,18.1855469 C69.8628483,19.3977925 70.0679244,20.2613907 70.4780827,20.7763672 C70.888241,21.2913437 71.4305532,21.5488281 72.1050358,21.5488281 C72.3511308,21.5488281 72.5698786,21.5397136 72.7612858,21.5214844 C72.952693,21.5032551 73.2170133,21.4713544 73.5542545,21.4257812 L73.6909733,22.0957031 C73.4631076,22.1686202 73.2261308,22.2187499 72.9800358,22.2460938 C72.7339408,22.2734376 72.4559488,22.2871094 72.1460514,22.2871094 C71.1525569,22.2871094 70.3983326,21.9635449 69.8833561,21.3164062 C69.3683796,20.6692676 69.1108952,19.6256582 69.1108952,18.1855469 L69.1108952,7.95898438 L66.3765202,7.95898438 L66.3765202,7.20703125 L69.1108952,7.20703125 L69.1108952,3.21484375 L69.8628483,3.21484375 Z M87.2367635,22 C87.1456172,21.5533832 87.0749799,21.1591814 87.0248494,20.8173828 C86.974719,20.4755842 86.9450969,20.1315121 86.9359822,19.7851562 C86.4346776,20.4960973 85.7807128,21.0908179 84.9740682,21.5693359 C84.1674235,22.047854 83.2992681,22.2871094 82.369576,22.2871094 C80.8292037,22.2871094 79.6557128,21.8929076 78.8490682,21.1044922 C78.0424235,20.3160768 77.6391072,19.2291736 77.6391072,17.84375 C77.6391072,16.4309825 78.2110416,15.3258503 79.3549275,14.5283203 C80.4988135,13.7307903 82.0505558,13.3320312 84.010201,13.3320312 L86.9359822,13.3320312 L86.9359822,11.8691406 C86.9359822,11.0032509 86.671662,10.3173853 86.1430135,9.81152344 C85.614365,9.30566153 84.8669766,9.05273438 83.900826,9.05273438 C83.0349362,9.05273438 82.3308417,9.27376081 81.7885213,9.71582031 C81.2462009,10.1578798 80.9750447,10.688799 80.9750447,11.3085938 L78.4047322,11.3085938 L78.3773885,11.2265625 C78.3227007,10.1510363 78.8308336,9.16667113 79.9018025,8.2734375 C80.9727714,7.38020387 82.3558956,6.93359375 84.0512166,6.93359375 C85.7283083,6.93359375 87.0772532,7.35969626 88.0980916,8.21191406 C89.11893,9.06413187 89.6293416,10.2923097 89.6293416,11.8964844 L89.6293416,19.0195312 C89.6293416,19.5481797 89.6566851,20.0585913 89.7113729,20.5507812 C89.7660606,21.0429712 89.86632,21.5260393 90.0121541,22 L87.2367635,22 Z M82.7660604,20.03125 C83.7413256,20.03125 84.6208741,19.7806015 85.4047322,19.2792969 C86.1885903,18.7779923 86.6990019,18.2037793 86.9359822,17.5566406 L86.9359822,15.1503906 L83.9144979,15.1503906 C82.829857,15.1503906 81.9617016,15.4238254 81.3100057,15.9707031 C80.6583097,16.5175809 80.3324666,17.1601526 80.3324666,17.8984375 C80.3324666,18.5546908 80.5375427,19.0742168 80.947701,19.4570312 C81.3578593,19.8398457 81.963973,20.03125 82.7660604,20.03125 L82.7660604,20.03125 Z M98.007163,22 L95.3138037,22 L95.3138037,0.671875 L98.007163,0.671875 L98.007163,22 Z M109.843969,22.2871094 C107.784063,22.2871094 106.145733,21.6012438 104.92893,20.2294922 C103.712127,18.8577405 103.103734,17.0781359 103.103734,14.890625 L103.103734,14.2890625 C103.103734,12.1835832 103.730356,10.4313221 104.983617,9.03222656 C106.236879,7.63313103 107.720262,6.93359375 109.433813,6.93359375 C111.429916,6.93359375 112.938365,7.53515023 113.959203,8.73828125 C114.980042,9.94141227 115.490453,11.5455629 115.490453,13.5507812 L115.490453,15.2324219 L105.892797,15.2324219 L105.851781,15.3007812 C105.879125,16.7226634 106.239148,17.891597 106.931859,18.8076172 C107.624571,19.7236374 108.595265,20.1816406 109.843969,20.1816406 C110.755432,20.1816406 111.555228,20.0517591 112.243383,19.7919922 C112.931537,19.5322253 113.526258,19.1744814 114.027563,18.71875 L115.080297,20.46875 C114.551649,20.9882838 113.85439,21.4212222 112.9885,21.7675781 C112.12261,22.113934 111.074444,22.2871094 109.843969,22.2871094 L109.843969,22.2871094 Z M109.433813,9.05273438 C108.531464,9.05273438 107.76129,9.43326442 107.123266,10.1943359 C106.485242,10.9554075 106.093319,11.9101505 105.947484,13.0585938 L105.974828,13.1269531 L112.797094,13.1269531 L112.797094,12.7714844 C112.797094,11.7141874 112.514545,10.8300817 111.949438,10.1191406 C111.384331,9.40819957 110.545797,9.05273438 109.433813,9.05273438 L109.433813,9.05273438 Z M128.667103,18.0761719 C128.667103,17.483721 128.441519,16.9960957 127.990345,16.6132812 C127.539171,16.2304668 126.684687,15.8977879 125.426868,15.6152344 C123.631287,15.2233053 122.280063,14.6923862 121.373158,14.0224609 C120.466252,13.3525357 120.012806,12.4388079 120.012806,11.28125 C120.012806,10.078119 120.523218,9.05273861 121.544056,8.20507812 C122.564894,7.35741764 123.89561,6.93359375 125.536243,6.93359375 C127.258908,6.93359375 128.628361,7.37564662 129.644642,8.25976562 C130.660923,9.14388463 131.14627,10.2193947 131.100697,11.4863281 L131.073353,11.5683594 L128.50304,11.5683594 C128.50304,10.9212207 128.231884,10.3401718 127.689564,9.82519531 C127.147243,9.31021878 126.429477,9.05273438 125.536243,9.05273438 C124.579207,9.05273438 123.868277,9.2623677 123.403431,9.68164062 C122.938585,10.1009136 122.706165,10.6067679 122.706165,11.1992188 C122.706165,11.782555 122.911241,12.2428369 123.3214,12.5800781 C123.731558,12.9173194 124.565534,13.2180976 125.823353,13.4824219 C127.691852,13.8834655 129.081812,14.4280565 129.993275,15.1162109 C130.904738,15.8043654 131.360462,16.7272078 131.360462,17.8847656 C131.360462,19.1972722 130.829543,20.2591105 129.767689,21.0703125 C128.705834,21.8815145 127.318153,22.2871094 125.604603,22.2871094 C123.717875,22.2871094 122.232212,21.8085985 121.147572,20.8515625 C120.062931,19.8945265 119.547962,18.7780012 119.60265,17.5019531 L119.629993,17.4199219 L122.200306,17.4199219 C122.245879,18.3769579 122.601344,19.0764952 123.266712,19.5185547 C123.93208,19.9606142 124.711369,20.1816406 125.604603,20.1816406 C126.561639,20.1816406 127.311306,19.9879577 127.853626,19.6005859 C128.395947,19.2132142 128.667103,18.7050813 128.667103,18.0761719 L128.667103,18.0761719 Z M144.865237,18.0761719 C144.865237,17.483721 144.639653,16.9960957 144.188479,16.6132812 C143.737305,16.2304668 142.882821,15.8977879 141.625002,15.6152344 C139.82942,15.2233053 138.478197,14.6923862 137.571291,14.0224609 C136.664386,13.3525357 136.21094,12.4388079 136.21094,11.28125 C136.21094,10.078119 136.721351,9.05273861 137.74219,8.20507812 C138.763028,7.35741764 140.093744,6.93359375 141.734377,6.93359375 C143.457042,6.93359375 144.826495,7.37564662 145.842776,8.25976562 C146.859057,9.14388463 147.344404,10.2193947 147.298831,11.4863281 L147.271487,11.5683594 L144.701174,11.5683594 C144.701174,10.9212207 144.430018,10.3401718 143.887698,9.82519531 C143.345377,9.31021878 142.627611,9.05273438 141.734377,9.05273438 C140.777341,9.05273438 140.066411,9.2623677 139.601565,9.68164062 C139.136719,10.1009136 138.904299,10.6067679 138.904299,11.1992188 C138.904299,11.782555 139.109375,12.2428369 139.519534,12.5800781 C139.929692,12.9173194 140.763668,13.2180976 142.021487,13.4824219 C143.889986,13.8834655 145.279946,14.4280565 146.191409,15.1162109 C147.102872,15.8043654 147.558596,16.7272078 147.558596,17.8847656 C147.558596,19.1972722 147.027677,20.2591105 145.965823,21.0703125 C144.903968,21.8815145 143.516287,22.2871094 141.802737,22.2871094 C139.916009,22.2871094 138.430346,21.8085985 137.345706,20.8515625 C136.261065,19.8945265 135.746096,18.7780012 135.800784,17.5019531 L135.828127,17.4199219 L138.39844,17.4199219 C138.444013,18.3769579 138.799478,19.0764952 139.464846,19.5185547 C140.130214,19.9606142 140.909503,20.1816406 141.802737,20.1816406 C142.759773,20.1816406 143.50944,19.9879577 144.05176,19.6005859 C144.594081,19.2132142 144.865237,18.7050813 144.865237,18.0761719 L144.865237,18.0761719 Z M155.375871,22 L152.682511,22 L152.682511,7.20703125 L155.375871,7.20703125 L155.375871,22 Z M155.375871,3.41992188 L152.682511,3.41992188 L152.682511,0.671875 L155.375871,0.671875 L155.375871,3.41992188 Z M160.445098,14.4667969 C160.445098,12.2792859 161.03754,10.4768951 162.222442,9.05957031 C163.407344,7.64224552 165.016052,6.93359375 167.048614,6.93359375 C169.099406,6.93359375 170.719507,7.63996689 171.908966,9.05273438 C173.098425,10.4655019 173.693145,12.2701713 173.693145,14.4667969 L173.693145,14.7675781 C173.693145,16.9733183 173.100703,18.7779878 171.915802,20.1816406 C170.7309,21.5852935 169.117635,22.2871094 167.075958,22.2871094 C165.034281,22.2871094 163.418737,21.5830149 162.229278,20.1748047 C161.039819,18.7665945 160.445098,16.9642037 160.445098,14.7675781 L160.445098,14.4667969 Z M163.138458,14.7675781 C163.138458,16.3352943 163.468858,17.6295522 164.129669,18.6503906 C164.790479,19.6712291 165.772566,20.1816406 167.075958,20.1816406 C168.36112,20.1816406 169.336371,19.6712291 170.001739,18.6503906 C170.667107,17.6295522 170.999786,16.3352943 170.999786,14.7675781 L170.999786,14.4667969 C170.999786,12.91731 170.664828,11.6276093 169.994903,10.5976562 C169.324978,9.56770318 168.342891,9.05273438 167.048614,9.05273438 C165.763451,9.05273438 164.790479,9.56770318 164.129669,10.5976562 C163.468858,11.6276093 163.138458,12.91731 163.138458,14.4667969 L163.138458,14.7675781 Z" id="aboutalessio" sketch:type="MSShapeGroup"></path>
            </g>
        </g>
    </g>
</svg>